<svg xmlns="http://www.w3.org/2000/svg" xmlns:xlink="http://www.w3.org/1999/xlink" width="350" zoomAndPan="magnify" viewBox="0 0 262.5 74.999997" height="100" preserveAspectRatio="xMidYMid meet" version="1.0"><defs><g/><clipPath id="c6adb095be"><path d="M 0 4.429688 L 66.28125 4.429688 L 66.28125 70.710938 L 0 70.710938 Z M 0 4.429688 " clip-rule="nonzero"/></clipPath><clipPath id="035a248da5"><path d="M 33.140625 4.429688 C 14.839844 4.429688 0 19.269531 0 37.570312 C 0 55.875 14.839844 70.710938 33.140625 70.710938 C 51.445312 70.710938 66.28125 55.875 66.28125 37.570312 C 66.28125 19.269531 51.445312 4.429688 33.140625 4.429688 Z M 33.140625 4.429688 " clip-rule="nonzero"/></clipPath><clipPath id="833eb42239"><path d="M 14.136719 20.507812 L 52.386719 20.507812 L 52.386719 55.007812 L 14.136719 55.007812 Z M 14.136719 20.507812 " clip-rule="nonzero"/></clipPath></defs><g clip-path="url(#c6adb095be)"><g clip-path="url(#035a248da5)"><path fill="#8570ff" d="M 0 4.429688 L 66.28125 4.429688 L 66.28125 70.710938 L 0 70.710938 Z M 0 4.429688 " fill-opacity="1" fill-rule="nonzero"/></g></g><g clip-path="url(#833eb42239)"><path fill="#ffffff" d="M 28.988281 36.214844 L 21.257812 43.964844 C 20.882812 44.339844 20.382812 44.535156 19.886719 44.535156 C 19.394531 44.535156 18.902344 44.347656 18.527344 43.976562 C 17.769531 43.226562 17.765625 42.007812 18.515625 41.253906 L 24.886719 34.871094 L 18.527344 28.59375 C 17.769531 27.84375 17.765625 26.625 18.515625 25.871094 C 19.269531 25.113281 20.492188 25.113281 21.25 25.863281 L 28.980469 33.496094 C 29.347656 33.855469 29.550781 34.34375 29.554688 34.851562 C 29.554688 35.363281 29.355469 35.851562 28.992188 36.214844 Z M 45.65625 45.816406 L 30.195312 45.816406 C 29.128906 45.816406 28.261719 46.675781 28.261719 47.738281 C 28.261719 48.800781 29.128906 49.660156 30.195312 49.660156 L 45.65625 49.660156 C 46.722656 49.660156 47.589844 48.800781 47.589844 47.738281 C 47.589844 46.675781 46.722656 45.816406 45.65625 45.816406 Z M 57.898438 22.101562 L 57.898438 52.867188 C 57.898438 56.753906 54.71875 59.917969 50.8125 59.917969 L 14.734375 59.917969 C 10.824219 59.917969 7.648438 56.753906 7.648438 52.867188 L 7.648438 22.101562 C 7.648438 18.210938 10.824219 15.050781 14.734375 15.050781 L 50.8125 15.050781 C 54.71875 15.050781 57.898438 18.210938 57.898438 22.101562 Z M 54.03125 22.101562 C 54.03125 20.335938 52.585938 18.894531 50.8125 18.894531 L 14.734375 18.894531 C 12.960938 18.894531 11.511719 20.335938 11.511719 22.101562 L 11.511719 52.867188 C 11.511719 54.632812 12.960938 56.070312 14.734375 56.070312 L 50.8125 56.070312 C 52.585938 56.070312 54.03125 54.632812 54.03125 52.867188 Z M 54.03125 22.101562 " fill-opacity="1" fill-rule="nonzero"/></g><g fill="#ffffff" fill-opacity="1"><g transform="translate(81.303575, 55.643688)"><g><path d="M 26.015625 -8.890625 L 26.015625 -1.1875 C 25.023438 -0.789062 23.5625 -0.492188 21.625 -0.296875 C 19.695312 -0.0976562 17.644531 0 15.46875 0 C 12.34375 0 9.742188 -0.429688 7.671875 -1.296875 C 5.597656 -2.171875 4.054688 -3.675781 3.046875 -5.8125 C 2.046875 -7.945312 1.523438 -10.910156 1.484375 -14.703125 C 1.484375 -18.609375 2.023438 -21.644531 3.109375 -23.8125 C 4.191406 -25.988281 5.78125 -27.507812 7.875 -28.375 C 9.96875 -29.25 12.476562 -29.6875 15.40625 -29.6875 C 17.144531 -29.6875 18.984375 -29.566406 20.921875 -29.328125 C 22.859375 -29.097656 24.4375 -28.785156 25.65625 -28.390625 L 25.71875 -20.453125 L 25.546875 -20.328125 C 24.359375 -20.566406 23.09375 -20.742188 21.75 -20.859375 C 20.40625 -20.984375 19.082031 -21.046875 17.78125 -21.046875 C 15.132812 -21.046875 13.296875 -20.550781 12.265625 -19.5625 C 11.242188 -18.570312 10.734375 -16.910156 10.734375 -14.578125 C 10.734375 -12.796875 10.945312 -11.472656 11.375 -10.609375 C 11.8125 -9.742188 12.539062 -9.171875 13.5625 -8.890625 C 14.59375 -8.609375 16 -8.46875 17.78125 -8.46875 C 19.164062 -8.46875 20.488281 -8.523438 21.75 -8.640625 C 23.007812 -8.765625 24.351562 -8.90625 25.78125 -9.0625 Z M 26.015625 -8.890625 "/></g></g></g><g fill="#ffffff" fill-opacity="1"><g transform="translate(106.963423, 55.643688)"><g><path d="M 21.578125 -0.53125 L 21.21875 -4.734375 L 20.984375 -4.734375 C 20.304688 -3.160156 19.34375 -1.976562 18.09375 -1.1875 C 16.851562 -0.394531 15.050781 0 12.6875 0 C 8.851562 0 6.046875 -1.113281 4.265625 -3.34375 C 2.484375 -5.582031 1.554688 -8.953125 1.484375 -13.453125 C 1.441406 -17.484375 1.851562 -20.679688 2.71875 -23.046875 C 3.59375 -25.421875 4.957031 -27.117188 6.8125 -28.140625 C 8.664062 -29.171875 11.035156 -29.6875 13.921875 -29.6875 C 15.421875 -29.6875 16.785156 -29.554688 18.015625 -29.296875 C 19.242188 -29.046875 20.234375 -28.703125 20.984375 -28.265625 L 21.09375 -28.328125 L 21.09375 -40.421875 L 30.578125 -40.421875 L 30.578125 -0.53125 Z M 15.765625 -8.0625 C 17.347656 -8.0625 18.628906 -8.550781 19.609375 -9.53125 C 20.597656 -10.519531 21.09375 -12.160156 21.09375 -14.453125 L 21.09375 -20.6875 C 19.632812 -21.28125 17.914062 -21.578125 15.9375 -21.578125 C 14.082031 -21.578125 12.75 -21.128906 11.9375 -20.234375 C 11.132812 -19.347656 10.734375 -17.5625 10.734375 -14.875 C 10.734375 -12.582031 11.054688 -10.875 11.703125 -9.75 C 12.359375 -8.625 13.710938 -8.0625 15.765625 -8.0625 Z M 15.765625 -8.0625 "/></g></g></g><g fill="#94a3b8" fill-opacity="1"><g transform="translate(138.971536, 55.643688)"><g><path d="M 12.5 -40.125 C 12.625 -38.695312 12.6875 -37.507812 12.6875 -36.5625 C 12.6875 -36.007812 12.675781 -35.445312 12.65625 -34.875 C 12.632812 -34.300781 12.582031 -33.660156 12.5 -32.953125 C 11.675781 -32.796875 10.867188 -32.675781 10.078125 -32.59375 C 9.285156 -32.519531 8.492188 -32.484375 7.703125 -32.484375 C 6.953125 -32.484375 6.191406 -32.519531 5.421875 -32.59375 C 4.648438 -32.675781 3.867188 -32.796875 3.078125 -32.953125 C 3.003906 -33.617188 2.945312 -34.238281 2.90625 -34.8125 C 2.863281 -35.382812 2.84375 -35.945312 2.84375 -36.5 C 2.84375 -37.019531 2.863281 -37.578125 2.90625 -38.171875 C 2.945312 -38.765625 3.003906 -39.414062 3.078125 -40.125 C 3.867188 -40.320312 4.671875 -40.445312 5.484375 -40.5 C 6.296875 -40.5625 7.09375 -40.59375 7.875 -40.59375 C 8.632812 -40.59375 9.394531 -40.5625 10.15625 -40.5 C 10.925781 -40.445312 11.707031 -40.320312 12.5 -40.125 Z M 12.5 -0.53125 L 3.015625 -0.53125 L 3.015625 -29.390625 L 12.5 -29.390625 Z M 12.5 -0.53125 "/></g></g></g><g fill="#94a3b8" fill-opacity="1"><g transform="translate(152.364189, 55.643688)"><g><path d="M 13.03125 -0.53125 L 3.5625 -0.53125 L 3.5625 -29.390625 L 12.5625 -29.390625 L 13.03125 -24.125 L 13.21875 -24.125 C 13.769531 -25.894531 14.753906 -27.265625 16.171875 -28.234375 C 17.597656 -29.203125 19.578125 -29.6875 22.109375 -29.6875 C 25.546875 -29.6875 28.082031 -28.71875 29.71875 -26.78125 C 31.363281 -24.851562 32.1875 -21.5 32.1875 -16.71875 L 32.1875 -0.53125 L 22.703125 -0.53125 L 22.640625 -14.875 C 22.640625 -17.082031 22.300781 -18.660156 21.625 -19.609375 C 20.957031 -20.566406 19.695312 -21.046875 17.84375 -21.046875 C 16.101562 -21.046875 14.875 -20.617188 14.15625 -19.765625 C 13.445312 -18.910156 13.070312 -17.457031 13.03125 -15.40625 Z M 13.03125 -0.53125 "/></g></g></g><g fill="#94a3b8" fill-opacity="1"><g transform="translate(185.372493, 55.643688)"><g><path d="M 21.578125 -0.53125 L 21.21875 -4.734375 L 20.984375 -4.734375 C 20.304688 -3.160156 19.34375 -1.976562 18.09375 -1.1875 C 16.851562 -0.394531 15.050781 0 12.6875 0 C 8.851562 0 6.046875 -1.113281 4.265625 -3.34375 C 2.484375 -5.582031 1.554688 -8.953125 1.484375 -13.453125 C 1.441406 -17.484375 1.851562 -20.679688 2.71875 -23.046875 C 3.59375 -25.421875 4.957031 -27.117188 6.8125 -28.140625 C 8.664062 -29.171875 11.035156 -29.6875 13.921875 -29.6875 C 15.421875 -29.6875 16.785156 -29.554688 18.015625 -29.296875 C 19.242188 -29.046875 20.234375 -28.703125 20.984375 -28.265625 L 21.09375 -28.328125 L 21.09375 -40.421875 L 30.578125 -40.421875 L 30.578125 -0.53125 Z M 15.765625 -8.0625 C 17.347656 -8.0625 18.628906 -8.550781 19.609375 -9.53125 C 20.597656 -10.519531 21.09375 -12.160156 21.09375 -14.453125 L 21.09375 -20.6875 C 19.632812 -21.28125 17.914062 -21.578125 15.9375 -21.578125 C 14.082031 -21.578125 12.75 -21.128906 11.9375 -20.234375 C 11.132812 -19.347656 10.734375 -17.5625 10.734375 -14.875 C 10.734375 -12.582031 11.054688 -10.875 11.703125 -9.75 C 12.359375 -8.625 13.710938 -8.0625 15.765625 -8.0625 Z M 15.765625 -8.0625 "/></g></g></g><g fill="#94a3b8" fill-opacity="1"><g transform="translate(217.373351, 55.643688)"><g><path d="M 12.5 -40.125 C 12.625 -38.695312 12.6875 -37.507812 12.6875 -36.5625 C 12.6875 -36.007812 12.675781 -35.445312 12.65625 -34.875 C 12.632812 -34.300781 12.582031 -33.660156 12.5 -32.953125 C 11.675781 -32.796875 10.867188 -32.675781 10.078125 -32.59375 C 9.285156 -32.519531 8.492188 -32.484375 7.703125 -32.484375 C 6.953125 -32.484375 6.191406 -32.519531 5.421875 -32.59375 C 4.648438 -32.675781 3.867188 -32.796875 3.078125 -32.953125 C 3.003906 -33.617188 2.945312 -34.238281 2.90625 -34.8125 C 2.863281 -35.382812 2.84375 -35.945312 2.84375 -36.5 C 2.84375 -37.019531 2.863281 -37.578125 2.90625 -38.171875 C 2.945312 -38.765625 3.003906 -39.414062 3.078125 -40.125 C 3.867188 -40.320312 4.671875 -40.445312 5.484375 -40.5 C 6.296875 -40.5625 7.09375 -40.59375 7.875 -40.59375 C 8.632812 -40.59375 9.394531 -40.5625 10.15625 -40.5 C 10.925781 -40.445312 11.707031 -40.320312 12.5 -40.125 Z M 12.5 -0.53125 L 3.015625 -0.53125 L 3.015625 -29.390625 L 12.5 -29.390625 Z M 12.5 -0.53125 "/></g></g></g><g fill="#94a3b8" fill-opacity="1"><g transform="translate(230.766004, 55.643688)"><g><path d="M 28.984375 -1.484375 C 27.878906 -1.085938 26.347656 -0.738281 24.390625 -0.4375 C 22.429688 -0.144531 20.109375 0 17.421875 0 C 14.023438 0 11.128906 -0.441406 8.734375 -1.328125 C 6.347656 -2.222656 4.539062 -3.742188 3.3125 -5.890625 C 2.09375 -8.046875 1.484375 -11.039062 1.484375 -14.875 C 1.484375 -20.09375 2.675781 -23.863281 5.0625 -26.1875 C 7.457031 -28.519531 11.160156 -29.6875 16.171875 -29.6875 C 19.773438 -29.6875 22.613281 -29.171875 24.6875 -28.140625 C 26.757812 -27.117188 28.238281 -25.671875 29.125 -23.796875 C 30.019531 -21.921875 30.46875 -19.695312 30.46875 -17.125 C 30.46875 -16.375 30.4375 -15.5625 30.375 -14.6875 C 30.3125 -13.820312 30.203125 -12.976562 30.046875 -12.15625 L 29.8125 -11.90625 L 10.3125 -11.90625 C 10.59375 -10.175781 11.410156 -9.03125 12.765625 -8.46875 C 14.128906 -7.914062 16.351562 -7.640625 19.4375 -7.640625 C 21.488281 -7.640625 23.195312 -7.6875 24.5625 -7.78125 C 25.925781 -7.882812 27.320312 -8.035156 28.75 -8.234375 L 28.984375 -8.0625 Z M 22.21875 -18.140625 C 22.21875 -19.085938 22.066406 -19.90625 21.765625 -20.59375 C 21.472656 -21.28125 20.894531 -21.8125 20.03125 -22.1875 C 19.164062 -22.570312 17.878906 -22.765625 16.171875 -22.765625 C 13.691406 -22.765625 12.066406 -22.335938 11.296875 -21.484375 C 10.523438 -20.628906 10.140625 -19.515625 10.140625 -18.140625 Z M 22.21875 -18.140625 "/></g></g></g></svg>