<svg xmlns="http://www.w3.org/2000/svg" version="1.1" xmlns:xlink="http://www.w3.org/1999/xlink" width="512" height="512" x="0" y="0" viewBox="0 0 512 512" style="enable-background:new 0 0 512 512" xml:space="preserve" class=""><g><circle cx="256" cy="256" r="204.8" fill="#d8bf2c" opacity="1" data-original="#2cd8cc" class=""></circle><path d="M256 469.333c-117.675 0-213.333-95.659-213.333-213.333S138.325 42.667 256 42.667 469.333 138.325 469.333 256 373.675 469.333 256 469.333zm0-409.6C147.797 59.733 59.733 147.797 59.733 256S147.797 452.267 256 452.267 452.267 364.203 452.267 256 364.203 59.733 256 59.733z" fill="#000000" opacity="1" data-original="#000000" class=""></path><path d="M336.384 315.733c-2.219 0-4.352-.853-6.059-2.475a8.498 8.498 0 0 1 0-12.032L375.467 256l-45.141-45.141c-3.328-3.328-3.328-8.704 0-12.032s8.704-3.328 12.032 0l51.2 51.2c1.621 1.621 2.475 3.755 2.475 6.059s-.939 4.437-2.475 6.059l-51.2 51.2c-1.622 1.535-3.841 2.388-5.974 2.388zM175.616 315.733c-2.219 0-4.352-.853-6.059-2.475l-51.2-51.2a8.498 8.498 0 0 1 0-12.032l51.2-51.2c3.328-3.328 8.704-3.328 12.032 0s3.328 8.704 0 12.032L136.533 256l45.141 45.141a8.498 8.498 0 0 1 0 12.032c-1.621 1.707-3.839 2.56-6.058 2.56zM256 306.517c-4.693 0-8.533-3.84-8.533-8.533v-20.736c0-10.581 6.827-20.053 16.64-22.955 14.421-4.267 22.955-18.688 19.797-33.621-2.219-10.752-10.923-19.371-21.675-21.675-8.789-1.877-17.408.171-24.235 5.717a28.452 28.452 0 0 0-10.581 22.187c0 4.693-3.84 8.533-8.533 8.533s-8.533-3.84-8.533-8.533c0-13.824 6.144-26.709 16.811-35.413s24.747-12.032 38.485-9.216c17.237 3.584 31.317 17.579 34.901 34.901 4.949 23.723-8.704 46.677-31.659 53.504-2.56.768-4.352 3.499-4.352 6.571v20.736c0 4.693-3.84 8.533-8.533 8.533z" fill="#000000" opacity="1" data-original="#000000" class=""></path><circle cx="255.95" cy="322.09" r="8.475" fill="#000000" opacity="1" data-original="#000000" class=""></circle></g></svg>