<?xml version="1.0" encoding="iso-8859-1"?>
<!-- Generator: Adobe Illustrator 19.0.0, SVG Export Plug-In . SVG Version: 6.00 Build 0)  -->
<svg version="1.1" id="Capa_1" xmlns="http://www.w3.org/2000/svg" xmlns:xlink="http://www.w3.org/1999/xlink" x="0px" y="0px"
	 viewBox="0 0 512.328 512.328" style="enable-background:new 0 0 512.328 512.328;" xml:space="preserve">
<g>
	<g>
		<path d="M481.348,135.976c30.816-69.088,2.688-124.736,1.408-127.168C479.3,2.344,472.036-1.24,464.74,0.392
			c-7.136,1.792-12.096,7.776-12.096,15.136c0,0.16-2.464,17.216-33.28,44.416c-45.728-38.4-103.04-59.616-163.2-59.616
			S138.692,21.544,92.932,59.944C62.628,33.192,59.748,16.328,59.684,16.328c0-7.328-4.992-13.76-12.128-15.52
			c-7.072-1.792-14.528,1.536-17.984,8c-1.28,2.432-29.408,58.08,1.408,127.168C11.044,173.032,0.164,214.344,0.164,256.328
			c0,141.152,114.848,256,256,256s256-114.848,256-256C512.164,214.312,501.284,173.032,481.348,135.976z M256.164,480.328
			c-123.488,0-224-100.512-224-224c0-39.104,10.432-77.728,30.144-111.648c0.288-0.48,0.288-0.992,0.512-1.504
			c0.48-1.024,0.832-2.048,1.056-3.136c0.224-0.992,0.352-1.92,0.352-2.912c0.064-1.056,0-2.016-0.16-3.04
			c-0.192-1.088-0.48-2.08-0.864-3.104c-0.192-0.544-0.192-1.088-0.448-1.6C49.284,102.888,47.012,78.76,48.548,60.296
			C56.58,70.152,67.652,81.32,83.044,93.48c0.544,0.416,1.184,0.544,1.728,0.896c0.96,0.576,1.92,1.152,2.944,1.504
			c0.928,0.32,1.856,0.48,2.784,0.64c1.056,0.16,2.08,0.288,3.168,0.256c0.96-0.032,1.888-0.256,2.816-0.48
			c1.056-0.256,2.016-0.512,3.008-0.96c0.928-0.416,1.76-0.992,2.592-1.6c0.64-0.416,1.312-0.608,1.856-1.12
			c41.344-38.88,95.424-60.288,152.224-60.288s110.88,21.408,152.224,60.288c0.544,0.512,1.248,0.736,1.856,1.184
			c0.8,0.576,1.536,1.12,2.4,1.504c0.992,0.448,1.984,0.704,3.04,0.96c0.928,0.224,1.792,0.448,2.72,0.512
			c0.352,0.032,0.64,0.192,0.96,0.192c0.672,0,1.312-0.32,1.952-0.384c1.12-0.128,2.176-0.288,3.264-0.672
			c0.96-0.32,1.824-0.864,2.72-1.408c0.64-0.384,1.376-0.544,1.984-1.024c15.36-12.16,26.464-23.328,34.496-33.184
			c1.536,18.496-0.736,42.592-14.208,69.088c-0.256,0.512-0.256,1.088-0.448,1.6c-0.384,1.024-0.672,2.016-0.864,3.072
			c-0.16,1.024-0.224,2.016-0.192,3.04c0.032,0.992,0.16,1.952,0.352,2.944c0.256,1.088,0.608,2.112,1.056,3.136
			c0.224,0.48,0.224,1.024,0.512,1.504c19.744,33.92,30.176,72.544,30.176,111.648C480.164,379.816,379.652,480.328,256.164,480.328
			z"/>
	</g>
</g>
<g>
	<g>
		<path d="M206.34,203.016l-68.128-55.136c-6.848-5.568-16.928-4.48-22.496,2.4c-5.568,6.88-4.48,16.928,2.4,22.496l33.088,26.784
			c-13.76,8.416-23.04,23.488-23.04,40.768c0,26.464,21.536,48,48,48s48-21.536,48-48
			C224.164,225.736,217.668,212.136,206.34,203.016z M176.164,256.328c-8.8,0-16-7.2-16-16s7.2-16,16-16
			c3.712,0,7.168,1.216,10.016,3.52l0.032,0.032c3.808,3.072,5.952,7.584,5.952,12.448
			C192.164,249.128,184.964,256.328,176.164,256.328z"/>
	</g>
</g>
<g>
	<g>
		<path d="M396.612,150.248c-5.536-6.848-15.648-7.936-22.496-2.368l-68.096,55.104c0,0,0,0-0.032,0l-0.032,0.032
			c-11.296,9.152-17.792,22.72-17.792,37.312c0,26.464,21.536,48,48,48s48-21.536,48-48c0-17.28-9.28-32.352-23.008-40.8
			l33.088-26.784C401.124,167.176,402.18,157.128,396.612,150.248z M336.164,256.328c-8.8,0-16-7.2-16-16
			c0-4.864,2.144-9.344,5.952-12.448l0.032-0.032c2.848-2.304,6.304-3.52,10.016-3.52c8.8,0,16,7.2,16,16
			S344.964,256.328,336.164,256.328z"/>
	</g>
</g>
<g>
	<g>
		<path d="M369.284,346.824c-6.24-6.24-16.384-6.24-22.624,0c-48.384,48.384-132.64,48.384-180.992,0
			c-6.24-6.24-16.384-6.24-22.624,0s-6.24,16.384,0,22.624c30.208,30.208,70.368,46.88,113.12,46.88s82.912-16.672,113.12-46.88
			C375.524,363.208,375.524,353.064,369.284,346.824z"/>
	</g>
</g>
<g>
</g>
<g>
</g>
<g>
</g>
<g>
</g>
<g>
</g>
<g>
</g>
<g>
</g>
<g>
</g>
<g>
</g>
<g>
</g>
<g>
</g>
<g>
</g>
<g>
</g>
<g>
</g>
<g>
</g>
</svg>
