<svg id="Layer_1" height="512" viewBox="0 0 64 64" width="512" xmlns="http://www.w3.org/2000/svg"><g><path d="m36 44h-8s2-7 4-7 4 7 4 7z" fill="#d74c4c"/><path d="m38 32h10c0 1.38-.56 2.63-1.46 3.54-.91.9-2.16 1.46-3.54 1.46-2.76 0-5-2.24-5-5z" fill="#e47f7f"/><path d="m54 26s1.35-2 4.5-2 4.5 3.01 4.5 5c0 8-9 10-9 10z" fill="#708c7f"/><path d="m10 39s-9-2-9-10c0-1.99 1.35-5 4.5-5s4.5 2 4.5 2z" fill="#708c7f"/><path d="m16 32h10c0 2.76-2.24 5-5 5-1.38 0-2.63-.56-3.54-1.46-.9-.91-1.46-2.16-1.46-3.54z" fill="#e47f7f"/><path d="m16 32c0 1.38.56 2.63 1.46 3.54.91.9 2.16 1.46 3.54 1.46 2.76 0 5-2.24 5-5zm16-10h5l3-3 3 3h11v17c0 1.5-.39 2.94-1.08 4.16-.7 1.22-1.7 2.22-2.92 2.84-2.45 1.23-4 3.73-4 6.47v3.53c0 2.76-2.24 5-5 5h-18c-2.76 0-5-2.24-5-5v-3.53c0-1.37-.39-2.68-1.08-3.8-.7-1.12-1.7-2.05-2.92-2.67-2.45-1.23-4-4-4-7v-17h11l3 3 3-3zm16 10h-10c0 2.76 2.24 5 5 5 1.38 0 2.63-.56 3.54-1.46.9-.91 1.46-2.16 1.46-3.54zm-20 12h8s-2-7-4-7-4 7-4 7z" fill="#82ad97"/><path d="m44.93 5.72c4.26 2.87 7.07 7.75 7.07 13.28v3h-9l-3-3-3 3h-5v-15c0-1.1.45-2.1 1.17-2.83.73-.72 1.73-1.17 2.83-1.17 3.31 0 6.38 1 8.93 2.72z" fill="#d74c4c"/><path d="m32 22h-5l-3 3-3-3h-9v-3c0-5.53 2.81-10.41 7.07-13.28 2.55-1.72 5.62-2.72 8.93-2.72 1.1 0 2.1.45 2.83 1.17.72.73 1.17 1.73 1.17 2.83z" fill="#e47f7f"/></g><g fill="#252525"><path d="m64 29c0-2.491-1.707-6-5.5-6-1.508 0-2.652.406-3.5.884v-1.884c0-.553-.448-1-1-1h-1v-2c0-5.666-2.808-10.94-7.511-14.109-2.804-1.891-6.086-2.891-9.489-2.891-1.324 0-2.579.518-3.542 1.468-.172.175-.315.37-.458.564-.146-.197-.291-.395-.467-.574-.954-.94-2.208-1.458-3.532-1.458-3.403 0-6.685 1-9.489 2.891-4.703 3.169-7.511 8.443-7.511 14.109v2h-1c-.552 0-1 .447-1 1v1.884c-.848-.478-1.992-.884-3.5-.884-3.793 0-5.5 3.509-5.5 6 0 7.298 6.794 10.051 9.05 10.766.246 3.098 1.946 5.844 4.497 7.126 1.038.527 1.911 1.325 2.521 2.303.609.989.932 2.122.932 3.275v3.53c0 3.309 2.691 6 6 6h18c3.309 0 6-2.691 6-6v-3.53c0-2.371 1.321-4.508 3.453-5.578 1.366-.694 2.519-1.812 3.337-3.239.667-1.18 1.051-2.512 1.161-3.887 2.257-.715 9.049-3.469 9.049-10.765zm-26.059-20.64c.133-.535-.011-1.116-.7-1.331s-1.108.312-1.241.849c-.376 1.503-1.55 2.623-3 2.985v-3.863c0-.795.313-1.551.872-2.118.577-.568 1.333-.882 2.128-.882 2.487 0 4.895.613 7.056 1.768l-1.11.74c-1.844 1.229-2.945 3.282-2.945 5.492v2h-2c-.552 0-1 .447-1 1s.448 1 1 1h5c2.206 0 4-1.794 4-4 0-.553-.448-1-1-1s-1 .447-1 1c0 1.103-.897 2-2 2h-1v-2c0-1.539.768-2.971 2.055-3.828l1.854-1.236c3.823 2.827 6.091 7.286 6.091 12.064v2h-2.057c-.386-3.579-2.836-4-3.943-4-.552 0-1 .447-1 1s.448 1 1 1c.478 0 1.646 0 1.935 2h-3.521l-2.707-2.707c-.391-.391-1.023-.391-1.414 0l-2.707 2.707h-3.586v-8.084c2.378-.391 4.34-2.153 4.941-4.555zm-11.881.002c.601 2.401 2.562 4.162 4.94 4.553v8.084h-3.465l-1.703-2.555c-.307-.46-.928-.583-1.387-.277-.459.307-.583.927-.277 1.387l1.545 2.318-1.713 1.713-2.293-2.293c-.188-.188-.442-.293-.707-.293h-3.935c.288-1.999 1.457-2 1.935-2 .552 0 1-.447 1-1s-.448-1-1-1c-1.106 0-3.556.421-3.943 4h-2.057v-2c0-4.778 2.267-9.237 6.091-12.064l1.854 1.236c1.287.857 2.055 2.289 2.055 3.828v2h-1c-1.103 0-2-.897-2-2 0-.553-.448-1-1-1s-1 .447-1 1c0 2.206 1.794 4 4 4h5c.552 0 1-.447 1-1s-.448-1-1-1h-2v-2c0-2.21-1.101-4.263-2.945-5.492l-1.11-.74c2.16-1.154 4.569-1.768 7.055-1.768.795 0 1.551.313 2.118.872.569.577.882 1.333.882 2.128v3.863c-1.45-.363-2.624-1.482-3-2.983-.133-.537-.571-1.004-1.241-.851s-.833.798-.7 1.333zm-24.06 20.638c0-1.305.855-4 3.5-4 2.015 0 3.107.939 3.5 1.362v2.553c-1.244-.82-2.954-1.557-4.447-.809-.494.247-.694.848-.447 1.342s.847.693 1.342.447c.838-.42 2.5.599 3.553 1.542v6.206c-2.285-.837-7-3.221-7-8.643zm51 10c0 1.3-.329 2.568-.947 3.662-.622 1.083-1.488 1.929-2.501 2.444-2.807 1.41-4.551 4.231-4.551 7.363v3.53c0 2.206-1.794 4-4 4h-18.001c-2.206 0-4-1.794-4-4v-3.53c0-1.524-.425-3.02-1.232-4.33-.807-1.291-1.953-2.339-3.319-3.033-2.095-1.052-3.449-3.449-3.449-6.106v-16h4v2c0 .553.448 1 1 1s1-.447 1-1v-2h3.586l2.707 2.707c.391.391 1.023.391 1.414 0l2.707-2.707h3.586v2c0 .553.448 1 1 1s1-.447 1-1v-2h4c.265 0 .52-.105.707-.293l2.293-2.293 2.293 2.293c.188.188.442.293.707.293h4v2c0 .553.448 1 1 1s1-.447 1-1v-2h4zm2-1.348v-6.215c1.052-.943 2.713-1.961 3.553-1.542.496.246 1.094.047 1.342-.447.247-.494.047-1.095-.447-1.342-1.492-.746-3.202-.008-4.447.811v-2.555c.393-.423 1.485-1.362 3.5-1.362 2.645 0 3.5 2.695 3.5 4 0 5.485-4.709 7.832-7 8.652z"/><path d="m16.757 36.251c1.14 1.128 2.647 1.749 4.243 1.749 3.009 0 5.5-2.228 5.928-5.12 1.758-.421 3.072-1.995 3.072-3.88 0-.553-.448-1-1-1s-1 .447-1 1c0 1.103-.897 2-2 2h-10c-.551 0-1-.448-1-1s-.448-1-1-1-1 .447-1 1c0 1.326.87 2.44 2.065 2.836.178 1.28.757 2.47 1.692 3.415zm4.243-.251c-1.066 0-2.074-.416-2.829-1.163-.512-.518-.853-1.153-1.029-1.837h7.716c-.447 1.721-2 3-3.858 3z"/><path d="m49 30c0 .552-.449 1-1 1h-10c-1.103 0-2-.897-2-2 0-.553-.448-1-1-1s-1 .447-1 1c0 1.885 1.315 3.459 3.072 3.88.428 2.892 2.919 5.12 5.928 5.12 1.596 0 3.103-.621 4.251-1.757.928-.939 1.506-2.127 1.684-3.407 1.195-.396 2.065-1.51 2.065-2.836 0-.553-.448-1-1-1s-1 .447-1 1zm-6 6c-1.858 0-3.411-1.279-3.858-3h7.717c-.176.683-.515 1.317-1.022 1.829-.763.755-1.771 1.171-2.837 1.171z"/><path d="m27.202 44.603c.189.25.484.397.798.397h8c.314 0 .609-.147.798-.397.189-.251.25-.575.163-.877-.824-2.886-2.565-7.726-4.961-7.726s-4.137 4.84-4.961 7.726c-.086.302-.026.626.163.877zm4.798-6.599c.617.191 1.769 2.414 2.641 4.996h-5.281c.872-2.582 2.023-4.805 2.641-4.996z"/><path d="m38 51.738v-1.738c0-.553-.448-1-1-1s-1 .447-1 1v1.308c-.955-.155-1.961-.246-3-.284v-1.025c0-.553-.448-1-1-1s-1 .447-1 1v1.025c-1.04.038-2.046.128-3 .283v-1.308c0-.553-.448-1-1-1s-1 .447-1 1v1.738c-2.3.611-3.501 1.394-3.556 1.431-.457.306-.579.922-.276 1.381.304.46.922.584 1.384.284.01-.006.841-.532 2.448-1.017v1.183c0 .553.448 1 1 1s1-.447 1-1v-1.655c.948-.171 1.95-.279 3-.32v1.975c0 .553.448 1 1 1s1-.447 1-1v-1.975c1.049.041 2.051.149 3 .32v1.655c0 .553.448 1 1 1s1-.447 1-1v-1.183c1.606.484 2.438 1.01 2.444 1.014.171.114.996.414 1.387-.275.307-.459.184-1.08-.275-1.387-.055-.037-1.257-.82-3.556-1.431z"/><path d="m47.253 41.205c-2.969 1.485-5.162 4.031-6.175 7.167-.169.526.129 1.061.645 1.259.769.294 1.122-.221 1.259-.644.846-2.622 2.681-4.75 5.166-5.993.494-.247.694-.848.447-1.342s-.847-.693-1.342-.447z"/><path d="m22.922 48.372c-1.013-3.136-3.206-5.682-6.175-7.167-.494-.246-1.095-.047-1.342.447s-.047 1.095.447 1.342c2.485 1.243 4.32 3.371 5.166 5.993.137.423.614.797 1.259.644.537-.128.814-.732.645-1.259z"/></g></svg>