<svg height="512" viewBox="0 0 58 60" width="512" xmlns="http://www.w3.org/2000/svg"><g id="Page-1" fill="none" fill-rule="evenodd"><g id="011---Monster" fill-rule="nonzero"><g id="Colour" transform="translate(1 1)"><path id="Shape" d="m24 0c-13.2534618.00331212-23.99668788 10.7465382-24 24v30c0 2.209139 1.790861 4 4 4h40c2.209139 0 4-1.790861 4-4v-30c-.0033121-13.2534618-10.7465382-23.99668788-24-24z" fill="#e91e63"/><path id="Shape" d="m24 0c-.5 0-1 .021-1.5.051 12.644911.79433797 22.4953683 11.2791647 22.5 23.949v30c0 2.209139-1.790861 4-4 4h3c2.209139 0 4-1.790861 4-4v-30c-.0033121-13.2534618-10.7465382-23.99668788-24-24z" fill="#ad1457"/><path id="Shape" d="m43 30c.0048139 1.5919979-.6291979 3.1193899-1.76 4.24-.293243.2982633-.6185509.5632049-.97.79l-2.27-3.03-3 4-3-4-3 4-3-4-3 4-3-4-2.27 3.03c-1.5177268-.9854195-2.5090379-2.603757-2.6973607-4.4035016s.4465022-3.5882388 1.7273607-4.8664984c.293243-.2982633.6185509-.5632049.97-.79l2.27 3.03 3-4 3 4 3-4 3 4 3-4 3 4 2.27-3.03c1.7025333 1.1066803 2.7297914 2.9993939 2.73 5.03z" fill="#607d8b"/><path id="Shape" d="m40.27 24.97-1.283 1.713c1.3483644 2.008406 1.3507342 4.6321616.006 6.643l1.277 1.7c.3514491-.2267951.676757-.4917367.97-.79 1.2808585-1.2782596 1.9156835-3.0667538 1.7273607-4.8664984s-1.1796339-3.4180821-2.6973607-4.4035016z" fill="#37474f"/><g fill="#f5f5f5"><path id="Shape" d="m27 14c0 2.7614237-2.2385763 5-5 5s-5-2.2385763-5-5z"/><path id="Shape" d="m42 14c0 2.7614237-2.2385763 5-5 5s-5-2.2385763-5-5z"/><path id="Shape" d="m23 24-3 4-2.27-3.03c.9707291-.6382218 2.1082728-.9756583 3.27-.97z"/><path id="Shape" d="m29 24-3 4-3-4z"/><path id="Shape" d="m35 24-3 4-3-4z"/><path id="Shape" d="m40.27 24.97-2.27 3.03-3-4h2c1.1617272-.0056583 2.2992709.3317782 3.27.97z"/><path id="Shape" d="m23 36h-2c-1.1617272.0056583-2.2992709-.3317782-3.27-.97l2.27-3.03z"/><path id="Shape" d="m29 36h-6l3-4z"/><path id="Shape" d="m35 36h-6l3-4z"/><path id="Shape" d="m40.27 35.03c-.9707291.6382218-2.1082728.9756583-3.27.97h-2l3-4z"/></g><path id="Shape" d="m48 41.38 2.42-1.04c1.3147374-.5626933 2.8297981-.3812393 3.9744735.47601s1.745062 2.2600574 1.575 3.68-1.0847361 2.6412967-2.3994735 3.20399l-5.57 2.39z" fill="#e91e63"/><path id="Shape" d="m55.68 42.45c-.8563039-2.0044064-3.1597597-2.9542484-5.18-2.136 1.4974984.6063937 2.4831779 2.0541092 2.498489 3.6696526.0153112 1.6155433-.9427526 3.0816804-2.428489 3.7163474l-2.57 1.1v1.29l5.57-2.39c.9761599-.4161963 1.746932-1.2032288 2.1426614-2.1878637s.3839803-2.0861664-.0326614-3.0621363z" fill="#ad1457"/><g fill="#673ab7"><circle id="Oval" cx="6" cy="24" r="2"/><circle id="Oval" cx="9" cy="32" r="2"/><circle id="Oval" cx="6" cy="40" r="2"/></g></g><g id="Icons" fill="#000"><path id="Shape" d="m41.873 25.174-.015-.007c-1.1427223-.7610614-2.4850365-1.1670958-3.858-1.167h-16c-1.3715297-.0006892-2.7126827.403918-3.855 1.163l-.015.007c-1.9528141 1.2952291-3.1268306 3.4826901-3.1268306 5.826s1.1740165 4.5307709 3.1268306 5.826l.015.007c1.1414258.7619086 2.4826463 1.1693195 3.855 1.171h16c1.3715297.0006892 2.7126827-.403918 3.855-1.163l.015-.007c1.9528141-1.2952291 3.1268306-3.4826901 3.1268306-5.826s-1.1740165-4.5307709-3.1268306-5.826zm-2.124 1.159-.749 1-1-1.333c.5983476.0042464 1.1909547.1170755 1.749.333zm-5.749-.333-1 1.333-1-1.333zm-6 0-1 1.333-1-1.333zm-6 0-1 1.333-.749-1c.5580453-.2159245 1.1506524-.3287536 1.749-.333zm-1.749 9.667.749-1 1 1.333c-.5983476-.0042464-1.1909547-.1170755-1.749-.333zm5.749.333 1-1.333 1 1.333zm6 0 1-1.333 1 1.333zm6 0 1-1.333.749 1c-.5580453.2159245-1.1506524.3287536-1.749.333zm3.45-1.4-1.65-2.2c-.1888544-.2518058-.4852427-.4-.8-.4s-.6111456.1481942-.8.4l-2.2 2.933-2.2-2.933c-.1967934-.2391708-.4902738-.3777478-.8-.3777478s-.6032066.138577-.8.3777478l-2.2 2.933-2.2-2.933c-.1967934-.2391708-.4902738-.3777478-.8-.3777478s-.6032066.138577-.8.3777478l-2.2 2.933-2.2-2.933c-.1967934-.2391708-.4902738-.3777478-.8-.3777478s-.6032066.138577-.8.3777478l-1.65 2.2c-.989392-.9372655-1.5498255-2.2401489-1.5498255-3.603s.5604335-2.6657345 1.5498255-3.603l1.65 2.2c.1888544.2518058.4852427.4.8.4s.6111456-.1481942.8-.4l2.2-2.927 2.2 2.933c.1888544.2518058.4852427.4.8.4s.6111456-.1481942.8-.4l2.2-2.933 2.2 2.933c.1888544.2518058.4852427.4.8.4s.6111456-.1481942.8-.4l2.2-2.933 2.2 2.933c.1888544.2518058.4852427.4.8.4s.6111456-.1481942.8-.4l1.65-2.2c.989392.9372655 1.5498255 2.2401489 1.5498255 3.603s-.5604335 2.6657345-1.5498255 3.603z"/><path id="Shape" d="m23 21c3.3123376-.0033074 5.9966926-2.6876624 6-6 0-.5522847-.4477153-1-1-1h-10c-.5522847 0-1 .4477153-1 1 .0033074 3.3123376 2.6876624 5.9966926 6 6zm3.874-5c-.4545768 1.7680068-2.0484897 3.0039458-3.874 3.0039458s-3.4194232-1.235939-3.874-3.0039458z"/><path id="Shape" d="m38 21c3.3123376-.0033074 5.9966926-2.6876624 6-6 0-.5522847-.4477153-1-1-1h-10c-.5522847 0-1 .4477153-1 1 .0033074 3.3123376 2.6876624 5.9966926 6 6zm3.874-5c-.4545768 1.7680068-2.0484897 3.0039458-3.874 3.0039458s-3.4194232-1.235939-3.874-3.0039458z"/><path id="Shape" d="m25.545 40.425-14.706 6.3c-.4993742.2225705-.7274312.8049312-.5119982 1.3074258.2154329.5024946.7944852.7388258 1.2999982.5305742l14.706-6.3c.9851599-.4228239 2.121059-.2879527 2.9798151.3538089.8587561.6417615 1.3099038 1.6929146 1.1835 2.7575s-.8111552 1.9808673-1.7963151 2.4036911l-14.706 6.3c-.3334726.1373777-.5671342.4436793-.6115002.8016015-.0443659.3579222.1074384.7120039.3972771.9266436.2898386.2146397.6728001.2565784 1.0022231.1097549l14.706-6.3c2.509586-1.1050673 3.6609065-4.0251989 2.5807344-6.5456005-1.0801721-2.5204015-3.9887643-3.7005705-6.5197344-2.6453995z"/><path id="Shape" d="m54.86 40.377c-1.2326485-.4994713-2.6141356-.4836212-3.835.044l-1.025.44v-15.861c0-13.8071187-11.1928813-25-25-25s-25 11.1928813-25 25v30c.00330612 2.7600532 2.23994685 4.9966939 5 5h40c2.7600532-.0033061 4.9966939-2.2399468 5-5v-3.251l4.963-2.129c1.8629551-.792647 3.064043-2.6305005 3.0421404-4.6549539-.0219025-2.0244533-1.2624721-3.8358905-3.1421404-4.5880461zm-9.86 17.623h-40c-1.65685425 0-3-1.3431458-3-3v-30c0-12.7025492 10.2974508-23 23-23s23 10.2974508 23 23v30c0 1.6568542-1.3431458 3-3 3zm9.176-10.219-4.176 1.792v-6.534l1.813-.78c.9864103-.4221093 2.1230837-.2859108 2.9818462.3572909.8587626.6432018 1.3091478 1.695689 1.1815 2.7610001-.1276478 1.065311-.8139359 1.9815997-1.8003462 2.403709z"/><path id="Shape" d="m7 28c1.65685425 0 3-1.3431458 3-3s-1.34314575-3-3-3-3 1.3431458-3 3 1.34314575 3 3 3zm0-4c.55228475 0 1 .4477153 1 1s-.44771525 1-1 1-1-.4477153-1-1 .44771525-1 1-1z"/><path id="Shape" d="m13 33c0-1.6568542-1.3431458-3-3-3-1.65685425 0-3 1.3431458-3 3s1.34314575 3 3 3c1.6568542 0 3-1.3431458 3-3zm-3 1c-.55228475 0-1-.4477153-1-1s.44771525-1 1-1c.5522847 0 1 .4477153 1 1s-.4477153 1-1 1z"/><path id="Shape" d="m7 38c-1.65685425 0-3 1.3431458-3 3s1.34314575 3 3 3 3-1.3431458 3-3-1.34314575-3-3-3zm0 4c-.55228475 0-1-.4477153-1-1s.44771525-1 1-1 1 .4477153 1 1-.44771525 1-1 1z"/></g></g></g></svg>