<svg id="Layer_1" enable-background="new 0 0 512 512" height="512" viewBox="0 0 512 512" width="512" xmlns="http://www.w3.org/2000/svg"><g><path d="m457.86 112.8h-100.91v-61.74c0-11.82-9.62-21.44-21.45-21.44h-159c-11.83 0-21.45 9.62-21.45 21.44v61.73h-100.91c-20.6 0-37.37 16.77-37.37 37.38v294.83c0 20.6 16.77 37.37 37.37 37.37h403.72c20.6 0 37.37-16.77 37.37-37.37v-294.82c0-20.62-16.77-37.38-37.37-37.38zm-290.83-61.74c0-5.22 4.25-9.46 9.47-9.46h159c5.22 0 9.47 4.24 9.47 9.46v61.73h-17.56v-44.97c0-6.34-5.16-11.5-11.5-11.5h-119.82c-6.34 0-11.5 5.16-11.5 11.5v44.98h-17.56zm148.4 17.24v44.5h-118.86v-44.5zm-206.68 402.1h-54.61c-14 0-25.39-11.39-25.39-25.39v-.57c6.67 6.19 15.59 9.99 25.39 9.99h54.61zm0-27.96h-54.61c-14 0-25.39-11.39-25.39-25.4v-144.31c11.16 15.1 29.09 24.93 49.28 24.93h30.72zm42.82 27.96h-30.84v-172.74h30.84zm196.88 0h-184.9v-15.98h184.91v15.98zm0-27.96h-184.9v-144.78h56.93v13.59c0 7.92 6.44 14.36 14.36 14.36h42.33c7.92 0 14.36-6.44 14.36-14.36v-13.59h56.93v144.78zm-116-131.19v-39.17c0-1.32 1.07-2.38 2.38-2.38h42.33c1.32 0 2.38 1.07 2.38 2.38v39.17c0 1.32-1.07 2.38-2.38 2.38h-42.33c-1.31.01-2.38-1.06-2.38-2.38zm158.82 159.15h-30.84v-172.74h30.84zm91.98-25.39c0 14-11.39 25.39-25.39 25.39h-54.61v-15.98h54.61c9.8 0 18.72-3.8 25.39-9.99zm0-27.97c0 14.01-11.39 25.4-25.39 25.4h-54.61v-144.78h30.72c20.18 0 38.11-9.82 49.28-24.93zm0-180.64c0 27.17-22.11 49.28-49.28 49.28h-142.44v-13.59c0-7.92-6.44-14.36-14.36-14.36h-42.33c-7.92 0-14.36 6.44-14.36 14.36v13.59h-142.45c-27.17 0-49.28-22.11-49.28-49.28v-86.23c0-14 11.39-25.4 25.39-25.4h106.86c.01 0 .02.01.04.01.01 0 .02-.01.04-.01h29.46c.01 0 .02.01.04.01.01 0 .02-.01.04-.01h130.77c.01 0 .02.01.04.01s.02-.01.04-.01h29.46c.01 0 .02.01.04.01.01 0 .02-.01.04-.01h106.86c14 0 25.39 11.4 25.39 25.4v86.23z" fill="#231f20"/><path d="m344.97 51.06v61.73h-17.56v-44.97c0-6.34-5.16-11.5-11.5-11.5h-119.82c-6.34 0-11.5 5.16-11.5 11.5v44.98h-17.56v-61.74c0-5.22 4.25-9.46 9.47-9.46h159c5.22 0 9.47 4.24 9.47 9.46z" fill="#954c35"/><g fill="#ff9f22"><path d="m483.25 444.43v.57c0 14-11.39 25.39-25.39 25.39h-54.61v-15.98h54.61c9.8.01 18.72-3.79 25.39-9.98z"/><path d="m108.75 454.42v15.98h-54.61c-14 0-25.39-11.39-25.39-25.39v-.57c6.67 6.19 15.59 9.99 25.39 9.99h54.61z"/><path d="m163.55 454.42h184.91v15.98h-184.91z"/><path d="m360.43 297.66h30.84v172.74h-30.84z"/><path d="m120.73 297.66h30.84v172.74h-30.84z"/><path d="m279.55 272.09v39.17c0 1.32-1.07 2.38-2.38 2.38h-42.33c-1.32 0-2.38-1.07-2.38-2.38v-39.17c0-1.32 1.07-2.38 2.38-2.38h42.33c1.31-.01 2.38 1.06 2.38 2.38z"/></g><path d="m348.45 297.66v144.78h-184.9v-144.78h56.93v13.59c0 7.92 6.44 14.36 14.36 14.36h42.33c7.92 0 14.36-6.44 14.36-14.36v-13.59z" fill="#954c35"/><path d="m483.25 272.73v144.31c0 14.01-11.39 25.4-25.39 25.4h-54.61v-144.78h30.72c20.19 0 38.12-9.82 49.28-24.93z" fill="#954c35"/><path d="m108.75 297.66v144.78h-54.61c-14 0-25.39-11.39-25.39-25.4v-144.31c11.16 15.1 29.09 24.93 49.28 24.93z" fill="#954c35"/><path d="m483.25 150.18v86.23c0 27.17-22.11 49.28-49.28 49.28h-142.44v-13.59c0-7.92-6.44-14.36-14.36-14.36h-42.33c-7.92 0-14.36 6.44-14.36 14.36v13.59h-142.45c-27.17 0-49.28-22.11-49.28-49.28v-86.23c0-14 11.39-25.4 25.39-25.4h106.86c.01 0 .02.01.04.01.01 0 .02-.01.04-.01h29.46c.01 0 .02.01.04.01.01 0 .02-.01.04-.01h130.77c.01 0 .02.01.04.01s.02-.01.04-.01h29.46c.01 0 .02.01.04.01.01 0 .02-.01.04-.01h106.86c13.99-.01 25.38 11.4 25.38 25.4z" fill="#c0694e"/></g></svg>