<svg xmlns="http://www.w3.org/2000/svg" version="1.1" xmlns:xlink="http://www.w3.org/1999/xlink" width="512" height="512" x="0" y="0" viewBox="0 0 511.062 511.062" style="enable-background:new 0 0 512 512" xml:space="preserve"><g><path d="M255.531 93.443c-36.025 0-65.333 29.309-65.333 65.333 3.589 86.674 127.091 86.649 130.667-.001-.001-36.024-29.309-65.332-65.334-65.332zm0 80.333c-8.25 0-15-6.72-15-15 .841-19.901 29.162-19.895 30 0 0 8.28-6.75 15-15 15z" fill="#000000" opacity="1" data-original="#000000"></path><path d="M458.701 390.499c-28.097-28.119-43.57-65.477-43.57-105.19V158.776c-8.791-211.783-310.487-211.619-319.199 0v126.533c0 39.714-15.474 77.071-43.57 105.19-13.354 13.335-20.717 31.092-20.717 49.988-.001 18.897 7.361 36.655 20.729 50.003 30.731 31.053 77.989 23.527 99.886.066 13.383-13.383 33.925-13.197 47.06-1.533 29.577 29.34 82.846 29.339 112.422 0 13.135-11.664 33.677-11.85 47.06 1.533 21.976 23.524 69.208 30.934 99.886-.066 13.368-13.348 20.73-31.105 20.729-50.003.001-18.896-7.361-36.653-20.716-49.988zM255.531 254.11c-52.567 0-95.333-42.767-95.333-95.334 5.237-126.472 185.449-126.436 190.667.001-.001 52.566-42.767 95.333-95.334 95.333z" fill="#000000" opacity="1" data-original="#000000"></path></g></svg>